<svg xmlns="http://www.w3.org/2000/svg" xmlns:xlink="http://www.w3.org/1999/xlink" width="500" zoomAndPan="magnify" viewBox="0 0 375 374.999991" height="500" preserveAspectRatio="xMidYMid meet" version="1.0"><path fill="#b2b2b2" d="M 332.296875 194.472656 L 332.296875 140.4375 L 294.445312 167.578125 L 271.539062 183.765625 L 222.984375 218.375 L 179.65625 187.5 L 179.65625 262.449219 L 222.984375 293.078125 L 271.539062 258.714844 L 275.523438 255.726562 L 332.296875 215.140625 Z M 332.296875 194.472656 " fill-opacity="1" fill-rule="evenodd"/><path fill="#fce900" d="M 179.65625 151.144531 L 154.007812 169.324219 L 118.652344 194.472656 L 118.652344 375 L 179.65625 331.671875 Z M 179.65625 151.144531 " fill-opacity="1" fill-rule="evenodd"/><path fill="#ec268f" d="M 275.523438 255.726562 L 222.984375 218.375 L 187.125 192.976562 L 179.65625 187.5 L 179.65625 262.449219 L 222.984375 293.078125 L 271.539062 258.714844 Z M 275.523438 255.726562 " fill-opacity="1" fill-rule="evenodd"/><path fill="#29cbe2" d="M 222.984375 218.375 L 275.523438 255.726562 L 332.296875 215.140625 L 332.296875 140.4375 L 294.445312 167.578125 L 271.539062 183.765625 Z M 222.984375 218.375 " fill-opacity="1" fill-rule="evenodd"/><path fill="#ec268f" d="M 81.300781 82.917969 L 111.429688 82.917969 L 111.429688 113.046875 L 81.300781 113.046875 Z M 81.300781 82.917969 " fill-opacity="1" fill-rule="evenodd"/><path fill="#fce900" d="M 106.199219 124.503906 L 144.796875 124.503906 L 144.796875 162.847656 L 106.199219 162.847656 Z M 106.199219 124.503906 " fill-opacity="1" fill-rule="evenodd"/><path fill="#a8cf45" d="M 140.3125 73.207031 L 167.207031 73.207031 L 167.207031 100.097656 L 140.3125 100.097656 Z M 140.3125 73.207031 " fill-opacity="1" fill-rule="evenodd"/><path fill="#fce900" d="M 113.421875 0.25 L 148.78125 0.25 L 148.78125 35.855469 L 113.421875 35.855469 Z M 113.421875 0.25 " fill-opacity="1" fill-rule="evenodd"/><path fill="#a8cf45" d="M 71.339844 37.847656 L 97.984375 37.847656 L 97.984375 64.492188 L 71.339844 64.492188 Z M 71.339844 37.847656 " fill-opacity="1" fill-rule="evenodd"/><path fill="#29cbe2" d="M 42.703125 106.574219 L 69.347656 106.574219 L 69.347656 133.464844 L 42.703125 133.464844 Z M 42.703125 106.574219 " fill-opacity="1" fill-rule="evenodd"/><path fill="#ec268f" d="M 83.042969 0 L 100.722656 0 L 100.722656 17.679688 L 83.042969 17.679688 Z M 83.042969 0 " fill-opacity="1" fill-rule="evenodd"/><path fill="#ec268f" d="M 111.429688 48.804688 L 129.109375 48.804688 L 129.109375 66.484375 L 111.429688 66.484375 Z M 111.429688 48.804688 " fill-opacity="1" fill-rule="evenodd"/><path fill="#eca42d" d="M 152.265625 39.34375 L 170.195312 39.34375 L 170.195312 57.023438 L 152.265625 57.023438 Z M 152.265625 39.34375 " fill-opacity="1" fill-rule="evenodd"/><path fill="#29cbe2" d="M 51.171875 77.6875 L 68.847656 77.6875 L 68.847656 95.367188 L 51.171875 95.367188 Z M 51.171875 77.6875 " fill-opacity="1" fill-rule="evenodd"/><path fill="#eca42d" d="M 56.398438 13.445312 L 74.078125 13.445312 L 74.078125 31.125 L 56.398438 31.125 Z M 56.398438 13.445312 " fill-opacity="1" fill-rule="evenodd"/><path fill="#eca42d" d="M 179.65625 85.90625 L 225.472656 118.527344 L 271.539062 151.144531 L 271.539062 183.765625 L 294.445312 167.578125 L 332.296875 140.4375 L 332.296875 119.769531 L 278.011719 81.175781 L 271.539062 76.445312 L 225.472656 43.824219 L 179.65625 76.445312 L 175.175781 79.433594 L 175.175781 82.667969 Z M 179.65625 85.90625 " fill-opacity="1" fill-rule="evenodd"/><path fill="#a8cf45" d="M 151.769531 170.816406 L 118.652344 170.816406 L 118.652344 194.472656 Z M 175.175781 82.667969 L 175.175781 108.066406 L 134.835938 108.066406 L 123.382812 116.285156 L 152.765625 116.285156 L 152.765625 170.320312 L 154.007812 169.570312 L 179.65625 151.394531 L 225.472656 118.773438 L 179.65625 86.15625 L 175.175781 83.167969 Z M 175.175781 82.667969 " fill-opacity="1" fill-rule="evenodd"/><path fill="#a8cf45" d="M 152.765625 116.285156 L 152.765625 170.320312 L 154.007812 169.324219 L 157.246094 167.082031 L 179.65625 151.144531 L 225.472656 118.527344 L 179.65625 85.90625 L 175.175781 82.667969 L 175.175781 108.066406 L 134.835938 108.066406 L 129.855469 111.804688 L 128.363281 112.796875 L 123.382812 116.285156 Z M 152.765625 116.285156 " fill-opacity="1" fill-rule="evenodd"/><path fill="#a8cf45" d="M 151.769531 170.816406 L 118.652344 170.816406 L 118.652344 194.472656 L 145.542969 175.546875 Z M 151.769531 170.816406 " fill-opacity="1" fill-rule="evenodd"/><path fill="#fce900" d="M 179.65625 151.144531 L 154.007812 169.324219 L 118.652344 194.472656 L 118.652344 375 L 179.65625 331.671875 Z M 179.65625 151.144531 " fill-opacity="1" fill-rule="evenodd"/><path fill="#ec268f" d="M 275.523438 255.726562 L 222.984375 218.375 L 187.125 192.976562 L 179.65625 187.5 L 179.65625 262.449219 L 222.984375 293.078125 L 271.539062 258.714844 Z M 275.523438 255.726562 " fill-opacity="1" fill-rule="evenodd"/><path fill="#29cbe2" d="M 222.984375 218.375 L 275.523438 255.726562 L 332.296875 215.140625 L 332.296875 140.4375 L 294.445312 167.578125 L 271.539062 183.765625 Z M 222.984375 218.375 " fill-opacity="1" fill-rule="evenodd"/><path fill="#eca42d" d="M 179.65625 85.90625 L 225.472656 118.527344 L 271.539062 151.144531 L 271.539062 183.765625 L 294.445312 167.578125 L 332.296875 140.4375 L 332.296875 119.769531 L 278.011719 81.175781 L 271.539062 76.445312 L 225.472656 43.824219 L 179.65625 76.445312 L 175.175781 79.433594 L 175.175781 82.667969 Z M 179.65625 85.90625 " fill-opacity="1" fill-rule="evenodd"/><path fill="#29cbe2" d="M 152.765625 116.285156 L 152.765625 170.320312 L 154.007812 169.324219 L 157.246094 167.082031 L 179.65625 151.144531 L 225.472656 118.527344 L 179.65625 85.90625 L 175.175781 82.667969 L 175.175781 108.066406 L 134.835938 108.066406 L 129.855469 111.804688 L 128.363281 112.796875 L 123.382812 116.285156 Z M 152.765625 116.285156 " fill-opacity="1" fill-rule="evenodd"/></svg>